<svg width="389" height="116" viewBox="0 0 389 116" fill="none" xmlns="http://www.w3.org/2000/svg">
    <path d="M187.966.67v22.444h-27.721V.67h-5.36v50.249h5.36V28.474h27.721V50.92h5.359V.67h-5.359zM205.971 50.919h5.36V.67h-5.36v50.249zM253.875 50.919h7.453L237.46 23.868 260.407.67h-7.453l-20.183 20.602h-3.518V.67h-5.36v50.248h5.36V26.298h3.601l21.021 24.622zM267.274 50.919h5.36V.67h-5.36v50.249zM321.292.67v41.288L290.221.67h-5.024v50.249h5.359V9.63l30.987 41.288h5.025V.67h-5.276zM362.747 24.287v5.025h20.183c-1.591 9.714-9.966 16.917-20.099 16.917-11.306 0-20.435-9.045-20.435-20.435 0-11.39 9.129-20.434 20.435-20.434 7.621 0 14.32 4.103 17.754 10.3l4.606-2.595A25.57 25.57 0 0 0 362.831 0c-14.321 0-25.795 11.557-25.795 25.794S348.51 51.59 362.831 51.59c14.237 0 25.794-11.558 25.794-25.795v-1.507h-25.878z" fill="#FC4C02"/>
    <path d="M180.68 115.02c9.63 0 18.005-5.276 22.444-13.064l-4.606-2.597c-3.434 6.198-10.134 10.301-17.838 10.301-11.306 0-20.435-9.044-20.435-20.434s9.129-20.434 20.435-20.434c7.704 0 14.404 4.103 17.838 10.3l4.606-2.596c-4.439-7.788-12.814-13.064-22.444-13.064-14.238 0-25.795 11.557-25.795 25.794s11.557 25.794 25.795 25.794zM217.361 108.99V64.102h-5.36v50.248h24.036v-5.36h-18.676zM261.496 115.02c10.971 0 18.927-7.286 18.927-17.168v-33.75h-5.36v32.912c0 7.287-5.778 12.646-13.567 12.646-7.788 0-13.483-5.359-13.483-12.645V64.102h-5.36v33.75c0 9.882 7.956 17.168 18.843 17.168zM317.188 88.891c4.439-2.01 7.37-6.03 7.37-11.39 0-7.872-6.197-13.4-13.902-13.4h-18.257v50.249h20.016c7.621 0 13.734-5.443 13.734-13.232 0-6.113-3.685-10.468-8.961-12.227zm2.01-10.971c0 4.941-4.103 8.71-9.128 8.71h-12.395V69.462h12.395c5.025 0 9.128 3.517 9.128 8.458zm-7.453 31.07h-14.07V91.822h14.07c4.941 0 9.044 3.769 9.044 8.71 0 4.941-4.103 8.458-9.044 8.458z" fill="#FFC72C"/>
    <path fill-rule="evenodd" clip-rule="evenodd" d="M87.935 21.476c0-11.026 8.874-19.9 19.899-19.9 11.026 0 19.9 8.874 19.9 19.9 0 17.21-18.286 35.9-19.093 36.706-.269.135-.538.269-.807.269s-.538 0-.807-.269c-.806-.806-19.092-19.63-19.092-36.706zm9.815 0c0 5.512 4.571 10.084 10.084 10.084s10.084-4.572 10.084-10.084c0-5.513-4.571-10.085-10.084-10.085S97.75 15.963 97.75 21.476z" fill="#FC4C02"/>
    <path fill-rule="evenodd" clip-rule="evenodd" d="M0 67.998c0-13.312 10.891-24.203 24.202-24.203 13.311 0 24.202 10.757 24.202 24.203 0 20.706-22.32 43.564-23.26 44.505-.27.269-.539.403-.942.403-.403 0-.672-.134-.94-.403C22.32 111.562 0 88.838 0 67.998zm11.967 0c0 6.722 5.512 12.235 12.235 12.235s12.236-5.512 12.236-12.235-5.513-12.236-12.236-12.236c-6.723 0-12.235 5.513-12.235 12.236z" fill="#FFC72C"/>
    <path fill-rule="evenodd" clip-rule="evenodd" d="M99.094 61.409 73.01 68.804c-1.748.538-2.15 1.883-2.286 2.421-.134.537-.269 2.016 1.076 3.092l21.782 17.614c4.033 3.227 5.512 8.605 3.765 13.446-1.748 4.975-6.185 8.067-11.429 8.067H35.093c2.017-2.42 4.437-5.378 6.992-9.008h43.833c2.017 0 2.69-1.345 2.958-2.017.27-.673.672-2.286-.94-3.496L66.152 81.174c-3.496-2.823-5.11-7.395-4.169-11.832.942-4.437 4.303-7.933 8.606-9.143l22.32-6.319c2.42 3.227 4.571 5.781 6.184 7.529z" fill="#753BBD"/>
</svg>
